<svg width="50" height="50" viewBox="0 0 50 50" fill="none" xmlns="http://www.w3.org/2000/svg">
<g clip-path="url(#clip0)">
<path d="M39.7529 36.8174C39.5713 36.6357 39.3193 36.5312 39.0625 36.5312C38.8057 36.5312 38.5537 36.6357 38.3721 36.8174C38.1904 36.999 38.0859 37.251 38.0859 37.5078C38.0859 37.7646 38.1904 38.0166 38.3721 38.1982C38.5537 38.3809 38.8057 38.4844 39.0625 38.4844C39.3193 38.4844 39.5713 38.3809 39.7529 38.1982C39.9346 38.0166 40.0391 37.7646 40.0391 37.5078C40.0391 37.251 39.9346 36.9991 39.7529 36.8174Z" fill="#1D4282"/>
<path d="M46.0938 0.00100708H3.90625C1.75234 0.00100708 0 1.75335 0 3.90726V34.5794C0 36.7333 1.75234 38.4857 3.90625 38.4857H19.2383V43.3877C16.3738 43.6668 14.1276 46.0879 14.1276 49.0243C14.1276 49.5637 14.5648 50.0009 15.1042 50.0009H34.8959C35.4353 50.0009 35.8725 49.5637 35.8725 49.0243C35.8725 46.0215 33.5233 43.5583 30.5665 43.3728V38.4857H35.1238C35.6632 38.4857 36.1004 38.0485 36.1004 37.5091C36.1004 36.9698 35.6632 36.5325 35.1238 36.5325H3.90625C2.8293 36.5325 1.95312 35.6564 1.95312 34.5794V3.90726C1.95312 2.8303 2.8293 1.95413 3.90625 1.95413H46.0938C47.1707 1.95413 48.0469 2.8303 48.0469 3.90726V34.5794C48.0469 35.6564 47.1707 36.5325 46.0938 36.5325H42.4479C41.9086 36.5325 41.4714 36.9698 41.4714 37.5091C41.4714 38.0485 41.9086 38.4857 42.4479 38.4857H46.0938C48.2477 38.4857 50 36.7333 50 34.5794V3.90726C50 1.75325 48.2477 0.00100708 46.0938 0.00100708ZM21.1914 38.4857H28.6133V43.3604H21.1914V38.4857ZM30.2083 45.3135C31.9167 45.3135 33.3592 46.4739 33.789 48.0479H16.211C16.6407 46.4739 18.0832 45.3135 19.7916 45.3135H30.2083Z" fill="#1D4282"/>
<path d="M25.5928 33.6925C25.4111 33.5109 25.1592 33.4064 24.9023 33.4064C24.6455 33.4064 24.3936 33.5109 24.2119 33.6925C24.0303 33.8741 23.9258 34.1261 23.9258 34.3829C23.9258 34.6407 24.0303 34.8917 24.2119 35.0734C24.3936 35.256 24.6455 35.3595 24.9023 35.3595C25.1592 35.3595 25.4111 35.256 25.5928 35.0734C25.7744 34.8917 25.8789 34.6407 25.8789 34.3829C25.8789 34.1261 25.7744 33.8741 25.5928 33.6925Z" fill="#1D4282"/>
<path d="M14.277 17.9017L19.0617 13.1171C19.4432 12.7357 19.4432 12.1174 19.0618 11.736C18.6805 11.3547 18.0621 11.3547 17.6807 11.736L12.2055 17.2112C11.8241 17.5926 11.8241 18.2109 12.2055 18.5924L17.6807 24.0676C17.8714 24.2583 18.1213 24.3536 18.3712 24.3536C18.6211 24.3536 18.8711 24.2583 19.0617 24.0676C19.4431 23.6862 19.4431 23.0679 19.0617 22.6864L14.277 17.9017Z" fill="#A0CEE8"/>
<path d="M37.7944 17.2112L32.3192 11.736C31.9379 11.3547 31.3195 11.3547 30.9381 11.736C30.5567 12.1174 30.5567 12.7357 30.9381 13.1172L35.7228 17.9018L30.9381 22.6865C30.5568 23.0679 30.5568 23.6862 30.9382 24.0676C31.1289 24.2583 31.3788 24.3536 31.6287 24.3536C31.8786 24.3536 32.1286 24.2583 32.3192 24.0676L37.7944 18.5924C38.1758 18.2109 38.1758 17.5927 37.7944 17.2112Z" fill="#A0CEE8"/>
<path d="M26.7145 11.8681C26.1936 11.7283 25.6581 12.0378 25.5184 12.5587L22.5948 23.4699C22.4553 23.9909 22.7644 24.5263 23.2853 24.666C23.37 24.6886 23.4551 24.6995 23.5388 24.6995C23.9699 24.6995 24.3645 24.4117 24.4814 23.9755L27.4051 13.0642C27.5447 12.5431 27.2355 12.0078 26.7145 11.8681Z" fill="#A0CEE8"/>
<path d="M45.1172 3.91446H29.5898C29.0505 3.91446 28.6133 4.35167 28.6133 4.89102C28.6133 5.43038 29.0505 5.86759 29.5898 5.86759H44.1406V30.2817H5.85938V5.86759H20.8496C21.389 5.86759 21.8262 5.43038 21.8262 4.89102C21.8262 4.35167 21.389 3.91446 20.8496 3.91446H4.88281C4.34346 3.91446 3.90625 4.35167 3.90625 4.89102V31.2582C3.90625 31.7976 4.34346 32.2348 4.88281 32.2348H45.1172C45.6565 32.2348 46.0938 31.7976 46.0938 31.2582V4.89102C46.0938 4.35167 45.6565 3.91446 45.1172 3.91446Z" fill="#1D4282"/>
<path d="M25.8857 4.20029C25.7041 4.01865 25.4521 3.91415 25.1953 3.91415C24.9385 3.91415 24.6865 4.01865 24.5049 4.20029C24.3232 4.38193 24.2188 4.63388 24.2188 4.89072C24.2188 5.14755 24.3232 5.39951 24.5049 5.58212C24.6865 5.76376 24.9385 5.86728 25.1953 5.86728C25.4521 5.86728 25.7041 5.76376 25.8857 5.58212C26.0674 5.39951 26.1719 5.14853 26.1719 4.89072C26.1719 4.63388 26.0674 4.38193 25.8857 4.20029Z" fill="#1D4282"/>
</g>
<defs>
<clipPath id="clip0">
<rect width="50" height="50" fill="white"/>
</clipPath>
</defs>
</svg>
