<svg width="50" height="50" viewBox="0 0 50 50" fill="none" xmlns="http://www.w3.org/2000/svg">
<path d="M47.5 15C48.8807 15 50 13.8807 50 12.5V2.5C50 1.11927 48.8807 0 47.5 0H2.5C1.11927 0 0 1.11927 0 2.5V12.5C0 13.8807 1.11927 15 2.5 15H5V17.5H2.5C1.11927 17.5 0 18.6193 0 20V30C0 31.3807 1.11927 32.5 2.5 32.5H5V35H2.5C1.11927 35 0 36.1193 0 37.5V47.5C0 48.8807 1.11927 50 2.5 50H47.5C48.8807 50 50 48.8807 50 47.5V37.5C50 36.1193 48.8807 35 47.5 35H45V32.5H47.5C48.8807 32.5 50 31.3807 50 30V20C50 18.6193 48.8807 17.5 47.5 17.5H45V15H47.5ZM47.5 36.6667C47.9602 36.6667 48.3333 37.0398 48.3333 37.5V47.5C48.3333 47.9602 47.9602 48.3333 47.5 48.3333H2.5C2.03979 48.3333 1.66667 47.9602 1.66667 47.5V37.5C1.66667 37.0398 2.03979 36.6667 2.5 36.6667H47.5ZM6.66667 35V32.5H8.33333V35H6.66667ZM10 35V32.5H40V35H10ZM41.6667 35V32.5H43.3333V35H41.6667ZM47.5 19.1667C47.9602 19.1667 48.3333 19.5398 48.3333 20V30C48.3333 30.4602 47.9602 30.8333 47.5 30.8333H2.5C2.03979 30.8333 1.66667 30.4602 1.66667 30V20C1.66667 19.5398 2.03979 19.1667 2.5 19.1667H47.5ZM6.66667 17.5V15H8.33333V17.5H6.66667ZM10 17.5V15H40V17.5H10ZM41.6667 17.5V15H43.3333V17.5H41.6667ZM2.5 13.3333C2.03979 13.3333 1.66667 12.9602 1.66667 12.5V2.5C1.66667 2.03979 2.03979 1.66667 2.5 1.66667H47.5C47.9602 1.66667 48.3333 2.03979 48.3333 2.5V12.5C48.3333 12.9602 47.9602 13.3333 47.5 13.3333H2.5Z" fill="#1D4282"/>
<path d="M26.6666 6.66667H9.84665C9.38644 5.3649 7.958 4.68271 6.65633 5.14302C5.35467 5.60334 4.67238 7.03156 5.13258 8.33333C5.59279 9.6351 7.02123 10.3173 8.3229 9.85698C9.03488 9.60531 9.59498 9.04531 9.84665 8.33333H26.6666C27.1269 8.33333 27.5 7.96021 27.5 7.5C27.5 7.03979 27.1269 6.66667 26.6666 6.66667ZM7.49998 8.33333C7.03977 8.33333 6.66665 7.96021 6.66665 7.5C6.66665 7.03979 7.03977 6.66667 7.49998 6.66667C7.96019 6.66667 8.33331 7.03979 8.33331 7.5C8.33331 7.96021 7.96019 8.33333 7.49998 8.33333Z" fill="#A0CEE8"/>
<path d="M38.3334 3.33334H36.6667V5.00001H38.3334V3.33334Z" fill="#1D4282"/>
<path d="M41.6667 3.33334H40V5.00001H41.6667V3.33334Z" fill="#1D4282"/>
<path d="M45 3.33334H43.3333V5.00001H45V3.33334Z" fill="#1D4282"/>
<path d="M35 3.33334H33.3333V5.00001H35V3.33334Z" fill="#1D4282"/>
<path d="M31.6667 3.33334H30V5.00001H31.6667V3.33334Z" fill="#1D4282"/>
<path d="M38.3334 6.66669H36.6667V8.33335H38.3334V6.66669Z" fill="#1D4282"/>
<path d="M41.6667 6.66669H40V8.33335H41.6667V6.66669Z" fill="#1D4282"/>
<path d="M45 6.66669H43.3333V8.33335H45V6.66669Z" fill="#1D4282"/>
<path d="M35 6.66669H33.3333V8.33335H35V6.66669Z" fill="#1D4282"/>
<path d="M31.6667 6.66669H30V8.33335H31.6667V6.66669Z" fill="#1D4282"/>
<path d="M38.3334 10H36.6667V11.6667H38.3334V10Z" fill="#1D4282"/>
<path d="M41.6667 10H40V11.6667H41.6667V10Z" fill="#1D4282"/>
<path d="M45 10H43.3333V11.6667H45V10Z" fill="#1D4282"/>
<path d="M35 10H33.3333V11.6667H35V10Z" fill="#1D4282"/>
<path d="M31.6667 10H30V11.6667H31.6667V10Z" fill="#1D4282"/>
<path d="M26.6666 24.1667H9.84665C9.38644 22.8649 7.958 22.1827 6.65633 22.643C5.35467 23.1033 4.67238 24.5316 5.13258 25.8333C5.59279 27.1351 7.02123 27.8173 8.3229 27.357C9.03488 27.1053 9.59488 26.5452 9.84654 25.8333H26.6666C27.1269 25.8333 27.5 25.4602 27.5 25C27.5 24.5398 27.1269 24.1667 26.6666 24.1667ZM7.49998 25.8333C7.03977 25.8333 6.66665 25.4602 6.66665 25C6.66665 24.5398 7.03977 24.1667 7.49998 24.1667C7.96019 24.1667 8.33331 24.5398 8.33331 25C8.33331 25.4602 7.96019 25.8333 7.49998 25.8333Z" fill="#A0CEE8"/>
<path d="M38.3334 20.8333H36.6667V22.5H38.3334V20.8333Z" fill="#1D4282"/>
<path d="M41.6667 20.8333H40V22.5H41.6667V20.8333Z" fill="#1D4282"/>
<path d="M45 20.8333H43.3333V22.5H45V20.8333Z" fill="#1D4282"/>
<path d="M35 20.8333H33.3333V22.5H35V20.8333Z" fill="#1D4282"/>
<path d="M31.6667 20.8333H30V22.5H31.6667V20.8333Z" fill="#1D4282"/>
<path d="M38.3334 24.1667H36.6667V25.8334H38.3334V24.1667Z" fill="#1D4282"/>
<path d="M41.6667 24.1667H40V25.8334H41.6667V24.1667Z" fill="#1D4282"/>
<path d="M45 24.1667H43.3333V25.8334H45V24.1667Z" fill="#1D4282"/>
<path d="M35 24.1667H33.3333V25.8334H35V24.1667Z" fill="#1D4282"/>
<path d="M31.6667 24.1667H30V25.8334H31.6667V24.1667Z" fill="#1D4282"/>
<path d="M38.3334 27.5H36.6667V29.1667H38.3334V27.5Z" fill="#1D4282"/>
<path d="M41.6667 27.5H40V29.1667H41.6667V27.5Z" fill="#1D4282"/>
<path d="M45 27.5H43.3333V29.1667H45V27.5Z" fill="#1D4282"/>
<path d="M35 27.5H33.3333V29.1667H35V27.5Z" fill="#1D4282"/>
<path d="M31.6667 27.5H30V29.1667H31.6667V27.5Z" fill="#1D4282"/>
<path d="M26.6666 41.6666H9.84665C9.38644 40.3648 7.958 39.6826 6.65633 40.143C5.35467 40.6033 4.67238 42.0315 5.13258 43.3333C5.59279 44.6351 7.02123 45.3173 8.3229 44.8569C9.03488 44.6053 9.59488 44.0452 9.84654 43.3333H26.6666C27.1269 43.3333 27.5 42.9602 27.5 42.5C27.5 42.0397 27.1269 41.6666 26.6666 41.6666ZM7.49998 43.3333C7.03977 43.3333 6.66665 42.9602 6.66665 42.5C6.66665 42.0397 7.03977 41.6666 7.49998 41.6666C7.96019 41.6666 8.33331 42.0397 8.33331 42.5C8.33331 42.9602 7.96019 43.3333 7.49998 43.3333Z" fill="#A0CEE8"/>
<path d="M38.3334 38.3333H36.6667V40H38.3334V38.3333Z" fill="#1D4282"/>
<path d="M41.6667 38.3333H40V40H41.6667V38.3333Z" fill="#1D4282"/>
<path d="M45 38.3333H43.3333V40H45V38.3333Z" fill="#1D4282"/>
<path d="M35 38.3333H33.3333V40H35V38.3333Z" fill="#1D4282"/>
<path d="M31.6667 38.3333H30V40H31.6667V38.3333Z" fill="#1D4282"/>
<path d="M38.3334 41.6667H36.6667V43.3334H38.3334V41.6667Z" fill="#1D4282"/>
<path d="M41.6667 41.6667H40V43.3334H41.6667V41.6667Z" fill="#1D4282"/>
<path d="M45 41.6667H43.3333V43.3334H45V41.6667Z" fill="#1D4282"/>
<path d="M35 41.6667H33.3333V43.3334H35V41.6667Z" fill="#1D4282"/>
<path d="M31.6667 41.6667H30V43.3334H31.6667V41.6667Z" fill="#1D4282"/>
<path d="M38.3334 45H36.6667V46.6667H38.3334V45Z" fill="#1D4282"/>
<path d="M41.6667 45H40V46.6667H41.6667V45Z" fill="#1D4282"/>
<path d="M45 45H43.3333V46.6667H45V45Z" fill="#1D4282"/>
<path d="M35 45H33.3333V46.6667H35V45Z" fill="#1D4282"/>
<path d="M31.6667 45H30V46.6667H31.6667V45Z" fill="#1D4282"/>
</svg>
