<svg width="50" height="50" viewBox="0 0 50 50" fill="none" xmlns="http://www.w3.org/2000/svg">
<path d="M18.5741 33.591C18.5741 33.0993 18.9941 32.8022 19.7319 32.8022C20.5925 32.8022 20.8282 33.1913 21.1456 33.1913C21.5145 33.1913 21.6785 32.7201 21.6785 32.4844C21.6785 31.808 20.3362 31.6646 19.7319 31.6646C18.5535 31.6646 17.2421 32.1872 17.2421 33.7139C17.2421 36.1423 20.5311 35.6708 20.5311 37.2077C20.5311 37.8227 19.9982 38.0992 19.3836 38.0992C18.3384 38.0992 18.0618 37.3104 17.6418 37.3104C17.3241 37.3104 17.0578 37.7407 17.0578 38.0275C17.0578 38.6219 18.0824 39.2978 19.4244 39.2978C20.8385 39.2978 21.8632 38.5398 21.8632 37.0746C21.8632 34.4211 18.5741 34.8613 18.5741 33.591Z" fill="#A0CEE8"/>
<path d="M24.5781 33.591C24.5781 33.0993 24.9981 32.8022 25.7359 32.8022C26.5965 32.8022 26.8322 33.1913 27.1496 33.1913C27.5185 33.1913 27.6825 32.7201 27.6825 32.4844C27.6825 31.808 26.3401 31.6646 25.7359 31.6646C24.5575 31.6646 23.246 32.1872 23.246 33.7139C23.246 36.1423 26.535 35.6708 26.535 37.2077C26.535 37.8227 26.0021 38.0992 25.3876 38.0992C24.3424 38.0992 24.0658 37.3104 23.6458 37.3104C23.328 37.3104 23.0618 37.7407 23.0618 38.0275C23.0618 38.6219 24.0864 39.2978 25.4284 39.2978C26.8425 39.2978 27.8671 38.5398 27.8671 37.0746C27.8671 34.4211 24.5781 34.8613 24.5781 33.591Z" fill="#A0CEE8"/>
<path d="M33.2664 38.0378H30.7663V32.1258C30.7663 31.8389 30.4283 31.7161 30.1003 31.7161C29.7623 31.7161 29.4342 31.8389 29.4342 32.1258V38.7855C29.4342 39.0624 29.7211 39.2058 30.0182 39.2058H33.2664C33.5327 39.2058 33.6658 38.9087 33.6658 38.6218C33.6658 38.3246 33.5327 38.0378 33.2664 38.0378Z" fill="#A0CEE8"/>
<path d="M41.4284 21.817H40.4396V15.4236C40.4396 6.91909 33.5209 0 25.016 0C16.5116 0 9.59249 6.91909 9.59249 15.4236V21.817H8.60411C7.30597 21.817 6.25006 22.8729 6.25006 24.1706V47.6462C6.25006 48.944 7.30597 49.9999 8.60411 49.9999H41.4284C42.7261 49.9999 43.7824 48.944 43.7824 47.6462V24.1706C43.7824 22.8729 42.7261 21.817 41.4284 21.817ZM42.3176 34.5874H39.2555V31.8366H42.3176V34.5874ZM39.2555 36.0523H42.3176V38.8034H39.2555V36.0523ZM11.0573 15.4236C11.0573 7.72666 17.3191 1.46484 25.016 1.46484C32.7129 1.46484 38.9748 7.72666 38.9748 15.4236V21.817H36.1904V15.4236C36.1904 9.26207 31.1775 4.24956 25.016 4.24956C18.8549 4.24956 13.8421 9.26207 13.8421 15.4236V21.817H11.0573V15.4236ZM34.7256 21.817H15.3069V15.4236C15.3069 10.07 19.6625 5.71441 25.016 5.71441C30.37 5.71441 34.7256 10.07 34.7256 15.4236V21.817ZM7.7149 36.0523H10.7766V38.8034H7.7149V36.0523ZM10.7766 34.5874H7.7149V31.8366H10.7766V34.5874ZM41.4284 48.5351H8.60411C8.11392 48.5351 7.7149 48.136 7.7149 47.6459V40.2679H10.7766V41.4195C10.7766 42.2721 11.4705 42.966 12.323 42.966H30.7861C31.1909 42.966 31.5186 42.6383 31.5186 42.2336C31.5186 41.8288 31.1909 41.5012 30.7861 41.5012H12.323C12.278 41.5012 12.2414 41.4645 12.2414 41.4195V29.6924C12.2414 29.6474 12.278 29.6108 12.323 29.6108H15.8364C16.2407 29.6108 16.5688 29.2831 16.5688 28.8783C16.5688 28.4736 16.2407 28.1459 15.8364 28.1459H12.323C11.4705 28.1459 10.7766 28.8398 10.7766 29.6924V30.3718H7.7149V24.1706C7.7149 23.6805 8.11392 23.2818 8.60411 23.2818H41.4284C41.9186 23.2818 42.3176 23.6805 42.3176 24.1706V30.3718H39.2555V29.6924C39.2555 28.8398 38.562 28.1459 37.709 28.1459H19.2459C18.8416 28.1459 18.5135 28.4736 18.5135 28.8783C18.5135 29.2831 18.8416 29.6108 19.2459 29.6108H37.709C37.7541 29.6108 37.7907 29.6474 37.7907 29.6924V41.4199C37.7907 41.4645 37.7541 41.5012 37.709 41.5012H34.2888C33.8844 41.5012 33.5564 41.8292 33.5564 42.2336C33.5564 42.6383 33.8844 42.966 34.2888 42.966H37.709C38.562 42.966 39.2555 42.2725 39.2555 41.4199V40.2682H42.3176V47.6462C42.3176 48.136 41.9186 48.5351 41.4284 48.5351Z" fill="#1D4282"/>
</svg>
