<svg width="50" height="50" viewBox="0 0 50 50" fill="none" xmlns="http://www.w3.org/2000/svg">
<path d="M47.0845 0.213074H2.91553C1.30781 0.213074 0 1.52098 0 3.1286V18.185C0 18.5945 0.331738 18.9263 0.741211 18.9263C1.15068 18.9263 1.48242 18.5945 1.48242 18.185V16.4001H48.5175V46.8713C48.5175 47.6614 47.8746 48.3044 47.0844 48.3044H2.91553C2.12539 48.3044 1.48242 47.6615 1.48242 46.8713V21.8749C1.48242 21.4654 1.15068 21.1337 0.741211 21.1337C0.331738 21.1337 0 21.4654 0 21.8749V46.8714C0 48.4791 1.30781 49.7869 2.91553 49.7869H47.0845C48.6922 49.7869 50 48.4791 50 46.8714V15.6588V9.34579V3.1286C50 1.52098 48.6922 0.213074 47.0845 0.213074ZM48.5175 14.9176H1.53623V10.0871H48.5175V14.9176ZM48.5175 8.60458H1.48252V3.1286C1.48252 2.33846 2.12539 1.69559 2.91563 1.69559H47.0846C47.8747 1.69559 48.5177 2.33846 48.5177 3.1286V8.60458H48.5175Z" fill="#1D4282"/>
<path d="M44.3577 2.92648C43.1429 2.92648 42.1547 3.91477 42.1547 5.12951C42.1547 6.34426 43.1429 7.33254 44.3577 7.33254C45.5724 7.33254 46.5607 6.34426 46.5607 5.12951C46.5607 3.91477 45.5724 2.92648 44.3577 2.92648ZM44.3577 5.85022C43.9604 5.85022 43.6371 5.52697 43.6371 5.12961C43.6371 4.73234 43.9603 4.409 44.3577 4.409C44.7551 4.409 45.0783 4.73225 45.0783 5.12961C45.0783 5.52688 44.755 5.85022 44.3577 5.85022Z" fill="#A0CEE8"/>
<path d="M38.3878 2.92648C37.1731 2.92648 36.1848 3.91477 36.1848 5.12951C36.1848 6.34426 37.1731 7.33254 38.3878 7.33254C39.6026 7.33254 40.5909 6.34426 40.5909 5.12951C40.5909 3.91477 39.6026 2.92648 38.3878 2.92648ZM38.3878 5.85022C37.9906 5.85022 37.6672 5.52697 37.6672 5.12961C37.6672 4.73234 37.9905 4.409 38.3878 4.409C38.7852 4.409 39.1084 4.73225 39.1084 5.12961C39.1083 5.52688 38.7851 5.85022 38.3878 5.85022Z" fill="#A0CEE8"/>
<path d="M32.4177 2.92648C31.2029 2.92648 30.2147 3.91477 30.2147 5.12951C30.2147 6.34426 31.2029 7.33254 32.4177 7.33254C33.6324 7.33254 34.6207 6.34426 34.6207 5.12951C34.6207 3.91477 33.6324 2.92648 32.4177 2.92648ZM32.4178 5.85022C32.0205 5.85022 31.6972 5.52697 31.6972 5.12961C31.6972 4.73234 32.0203 4.409 32.4178 4.409C32.8152 4.409 33.1384 4.73225 33.1384 5.12961C33.1383 5.52688 32.8151 5.85022 32.4178 5.85022Z" fill="#A0CEE8"/>
<path d="M25.2544 2.92648H6.41683C5.20209 2.92648 4.21381 3.91477 4.21381 5.12951C4.21381 6.34426 5.20209 7.33254 6.41683 7.33254H25.2544C26.4692 7.33254 27.4574 6.34426 27.4574 5.12951C27.4574 3.91477 26.4692 2.92648 25.2544 2.92648ZM25.2544 5.85022H6.41683C6.01947 5.85022 5.69623 5.52697 5.69623 5.12961C5.69623 4.73234 6.01937 4.409 6.41683 4.409H25.2544C25.6518 4.409 25.975 4.73225 25.975 5.12961C25.975 5.52688 25.6517 5.85022 25.2544 5.85022Z" fill="#A0CEE8"/>
<path d="M18.4414 25.8776C17.9203 25.8776 17.5327 26.2918 17.5327 26.7863C17.5327 27.2677 17.9202 27.6952 18.4414 27.6952C18.9227 27.6952 19.337 27.2677 19.337 26.7863C19.337 26.2918 18.9227 25.8776 18.4414 25.8776Z" fill="#1D4282"/>
<path d="M24.5356 25.8241C24.2016 25.8241 24.0012 26.2251 23.1992 26.2251C22.277 26.2251 21.8894 25.7707 21.8894 24.9954V23.9261C21.8895 23.1511 22.277 22.6967 23.1858 22.6967C23.9743 22.6967 24.2148 23.0708 24.509 23.0708C24.9231 23.0708 25.1905 22.5497 25.1905 22.2288C25.1905 21.7076 24.3086 21.1864 23.0522 21.1864C21.0341 21.1864 20.1653 22.3892 20.1653 23.9261V24.9954C20.1653 26.5591 21.0473 27.7353 23.0654 27.7353C24.3218 27.7353 25.2708 27.174 25.2708 26.6392C25.2709 26.3052 25.0035 25.8241 24.5356 25.8241Z" fill="#1D4282"/>
<path d="M28.7852 21.1864C27.1945 21.1864 25.8851 22.4561 25.8851 23.8995V24.9953C25.8851 26.4386 27.2215 27.7352 28.7852 27.7352C30.3355 27.7352 31.6853 26.4254 31.6853 24.9953V23.8995C31.6854 22.4159 30.3356 21.1864 28.7852 21.1864ZM29.9612 24.9954C29.9612 25.6237 29.4267 26.2251 28.7853 26.2251C28.1304 26.2251 27.6091 25.6237 27.6091 24.9954V23.8996C27.6091 23.2982 28.1305 22.6967 28.7853 22.6967C29.4267 22.6967 29.9612 23.298 29.9612 23.8996V24.9954Z" fill="#1D4282"/>
<path d="M39.8507 21.1864C39.0757 21.1864 38.3004 21.6139 37.8325 22.5228C37.552 21.7344 36.9236 21.1864 36.1621 21.1864C35.28 21.1864 34.6919 21.6808 34.3979 22.2022V21.8012C34.3978 21.4805 34.0501 21.2667 33.6359 21.2667C33.128 21.2667 32.7806 21.4805 32.7806 21.8013V27.0671C32.7806 27.3344 33.128 27.615 33.6359 27.615C34.1036 27.615 34.5046 27.3344 34.5046 27.0671V23.8996C34.5046 23.1111 35.026 22.6967 35.5472 22.6967C36.1085 22.6967 36.6431 23.151 36.6431 23.8996V27.0804C36.6431 27.4547 37.0975 27.615 37.4984 27.615C37.926 27.615 38.3672 27.4546 38.3672 27.0804V23.8861C38.3672 23.1111 38.8883 22.6832 39.4231 22.6832C39.9575 22.6832 40.5056 23.0975 40.5056 23.8994V27.0669C40.5056 27.3343 40.9066 27.6148 41.3609 27.6148C41.8288 27.6148 42.2298 27.3343 42.2298 27.0669V23.8994C42.2298 22.1619 41.067 21.1864 39.8507 21.1864Z" fill="#1D4282"/>
<path d="M18.4414 40.9261C17.9203 40.9261 17.5327 41.3402 17.5327 41.8348C17.5327 42.3161 17.9202 42.7437 18.4414 42.7437C18.9227 42.7437 19.337 42.3161 19.337 41.8348C19.337 41.3402 18.9227 40.9261 18.4414 40.9261Z" fill="#1D4282"/>
<path d="M23.7873 36.2349C22.8919 36.2349 22.2504 36.7293 21.9965 37.2507V36.8497C21.9965 36.5289 21.6488 36.315 21.2346 36.315C20.7267 36.315 20.3793 36.5289 20.3793 36.8497V42.1154C20.3793 42.3828 20.7267 42.6634 21.2346 42.6634C21.7023 42.6634 22.1033 42.3828 22.1033 42.1154V38.9479C22.1033 38.1995 22.6514 37.745 23.1994 37.745C23.8409 37.745 24.3622 38.3464 24.3622 38.9479V42.1154C24.3622 42.4764 24.8166 42.6634 25.2176 42.6634C25.6451 42.6634 26.0862 42.4763 26.0862 42.1154V38.9479C26.086 37.4645 25.017 36.2349 23.7873 36.2349Z" fill="#1D4282"/>
<path d="M32.0594 40.9127C31.6585 40.9127 31.2977 41.4206 30.4156 41.4206C29.4802 41.4206 28.8519 40.9127 28.8519 40.1375V39.9371H31.565C32.1664 39.9371 32.8081 39.8837 32.8081 38.7477C32.8081 37.264 31.525 36.235 30.0548 36.235C28.4243 36.235 27.1278 37.4645 27.1278 38.908V40.044C27.1278 41.6878 28.4644 42.7839 30.3622 42.7839C31.7923 42.7839 32.7143 42.129 32.7143 41.6746C32.7143 41.4072 32.4605 40.9127 32.0594 40.9127ZM28.8518 38.5472C28.8518 37.9057 29.4132 37.5047 30.0146 37.5047C30.656 37.5047 31.1908 37.9323 31.1908 38.5606C31.1908 38.8546 31.0839 38.9213 30.8031 38.9213H28.8518V38.5472Z" fill="#1D4282"/>
<path d="M36.8167 41.2066H36.2956C35.7342 41.2066 35.5471 41.0195 35.5471 40.4983V37.5713H37.1242V37.5714C37.4049 37.5714 37.5654 37.264 37.5654 36.9433C37.5654 36.6359 37.4049 36.315 37.1242 36.315H35.5472V34.0163C35.5472 33.6955 35.1195 33.4816 34.6784 33.4816C34.2774 33.4816 33.823 33.6955 33.823 34.0163V40.4982C33.823 42.0085 34.6917 42.6634 36.2956 42.6634H36.8167C37.3113 42.6634 37.5519 42.3024 37.5519 41.9283C37.5519 41.5675 37.3114 41.2066 36.8167 41.2066Z" fill="#1D4282"/>
<path d="M13.0497 20.3038H6.3382C5.92872 20.3038 5.59698 20.6356 5.59698 21.045V27.7566C5.59698 28.1659 5.92872 28.4978 6.3382 28.4978H13.0497C13.4592 28.4978 13.7909 28.166 13.7909 27.7566V21.045C13.791 20.6356 13.4592 20.3038 13.0497 20.3038ZM12.3085 27.0154H7.07941V21.7863H12.3085V27.0154Z" fill="#1D4282"/>
<path d="M13.0497 35.1286H6.3382C5.92872 35.1286 5.59698 35.4603 5.59698 35.8698V42.5813C5.59698 42.9908 5.92872 43.3225 6.3382 43.3225H13.0497C13.4592 43.3225 13.7909 42.9908 13.7909 42.5813V35.8698C13.791 35.4603 13.4592 35.1286 13.0497 35.1286ZM12.3085 41.8401H7.07941V36.611H12.3085V41.8401Z" fill="#1D4282"/>
</svg>
