<svg width="50" height="50" viewBox="0 0 50 50" fill="none" xmlns="http://www.w3.org/2000/svg">
<path d="M49.0234 1.00089H0.976559C0.437205 1.00089 0 1.43819 0 1.97744V12.0222C0 12.5615 0.437205 12.9988 0.976559 12.9988H49.0234C49.5628 12.9988 50 12.5615 50 12.0222V1.97744C50 1.43819 49.5628 1.00089 49.0234 1.00089ZM48.0469 11.0457H1.95312V2.954H48.0469V11.0457Z" fill="#1D4282"/>
<path d="M45.8406 8.82751L45.0431 8.02995C45.2608 7.59948 45.3767 7.12116 45.3767 6.62488C45.3767 5.79158 45.0522 5.00799 44.4629 4.41873C43.2465 3.20243 41.2673 3.20233 40.0508 4.41873C39.4616 5.00799 39.1371 5.79158 39.1371 6.62488C39.1371 7.45818 39.4617 8.24177 40.0508 8.83092C40.6402 9.42018 41.4237 9.74469 42.257 9.74469C42.7533 9.74469 43.2316 9.62867 43.662 9.4111L44.4596 10.2087C44.6503 10.3993 44.9002 10.4947 45.1501 10.4947C45.4 10.4947 45.65 10.3993 45.8406 10.2087C46.222 9.82731 46.222 9.20895 45.8406 8.82751ZM43.082 7.44978C42.8616 7.67019 42.5687 7.79157 42.257 7.79157C41.9452 7.79157 41.6524 7.67019 41.432 7.44978C41.2117 7.22937 41.0902 6.9365 41.0902 6.62488C41.0902 6.31326 41.2117 6.02019 41.432 5.79988C41.6594 5.57244 41.9582 5.45877 42.257 5.45877C42.5557 5.45877 42.8545 5.57244 43.082 5.79988C43.3023 6.02029 43.4238 6.31326 43.4238 6.62488C43.4238 6.9365 43.3024 7.22947 43.082 7.44978Z" fill="#1D4282"/>
<path d="M34.9941 8.57721C34.9814 8.51461 34.9629 8.45309 34.9384 8.39459C34.914 8.3359 34.8838 8.27838 34.8486 8.22565C34.8134 8.17291 34.7724 8.12213 34.7275 8.07721C34.6826 8.03229 34.6328 7.99127 34.5791 7.95611C34.5263 7.92096 34.4697 7.89069 34.4101 7.86627C34.3515 7.84186 34.29 7.8233 34.2275 7.81061C34.1015 7.78522 33.9716 7.78522 33.8457 7.81061C33.7832 7.8233 33.7216 7.84186 33.6631 7.86627C33.6045 7.89069 33.5478 7.92096 33.4951 7.95611C33.4414 7.99127 33.3916 8.03229 33.3457 8.07721C33.3008 8.12213 33.2607 8.17281 33.2246 8.22565C33.1894 8.27838 33.1591 8.336 33.1347 8.39459C33.1103 8.45318 33.0918 8.51461 33.0791 8.57721C33.0664 8.64058 33.0605 8.70416 33.0605 8.76861C33.0605 8.83199 33.0664 8.89556 33.0791 8.95904C33.0918 9.02154 33.1103 9.08306 33.1347 9.14156C33.1591 9.20025 33.1894 9.25689 33.2246 9.3105C33.2607 9.36324 33.3008 9.41402 33.3457 9.45894C33.3916 9.50386 33.4414 9.54498 33.4951 9.58003C33.5478 9.61519 33.6045 9.64546 33.6631 9.66988C33.7226 9.69429 33.7841 9.71285 33.8457 9.72554C33.9091 9.73824 33.9736 9.7441 34.0371 9.7441C34.1006 9.7441 34.165 9.73814 34.2275 9.72554C34.29 9.71294 34.3515 9.69429 34.4101 9.66988C34.4687 9.64546 34.5263 9.61519 34.5791 9.58003C34.6328 9.54498 34.6826 9.50386 34.7275 9.45894C34.9091 9.27642 35.0136 9.02545 35.0136 8.76861C35.0136 8.70416 35.0068 8.64058 34.9941 8.57721Z" fill="#1D4282"/>
<path d="M30.3345 7.79156H10.0384C9.49908 7.79156 9.06187 8.22887 9.06187 8.76812C9.06187 9.30738 9.49908 9.74468 10.0384 9.74468H30.3345C30.8739 9.74468 31.3111 9.30738 31.3111 8.76812C31.3111 8.22887 30.8739 7.79156 30.3345 7.79156Z" fill="#1D4282"/>
<path d="M30.7441 14.3909H1.09188C0.552531 14.3909 0.115326 14.8282 0.115326 15.3675V34.6251C0.115326 35.1645 0.552531 35.6017 1.09188 35.6017H30.7441C31.2835 35.6017 31.7207 35.1644 31.7207 34.6251V15.3675C31.7207 14.8282 31.2835 14.3909 30.7441 14.3909ZM11.8951 33.6485H3.60594L9.18843 27.185L13.2314 31.8666L11.8951 33.6485ZM14.3365 33.6485L16.1574 31.2206H20.8926C21.4319 31.2206 21.8691 30.7833 21.8691 30.2441C21.8691 29.7048 21.4319 29.2675 20.8926 29.2675H17.6223L18.3074 28.3541H24.4392L28.4103 33.6485H14.3365ZM19.7722 26.4009L21.3733 24.2663L22.9743 26.4009H19.7722ZM29.7676 32.203L22.1545 22.0526C21.97 21.8067 21.6806 21.662 21.3733 21.662C21.0659 21.662 20.7765 21.8067 20.592 22.0526L14.4309 30.2673L9.92759 25.0525C9.74214 24.8378 9.47232 24.7142 9.18853 24.7142C8.90475 24.7142 8.63502 24.8378 8.44947 25.0525L2.06844 32.4405V16.344H29.7676V32.203Z" fill="#1D4282"/>
<path d="M13.4421 17.4653C11.5384 17.4653 9.9897 19.0141 9.9897 20.9178C9.9897 22.8215 11.5385 24.3702 13.4421 24.3702C15.3458 24.3702 16.8946 22.8215 16.8946 20.9178C16.8946 19.0141 15.3458 17.4653 13.4421 17.4653ZM13.4421 22.4172C12.6154 22.4172 11.9428 21.7446 11.9428 20.9179C11.9428 20.0911 12.6155 19.4185 13.4421 19.4185C14.2688 19.4185 14.9414 20.0911 14.9414 20.9179C14.9414 21.7446 14.2689 22.4172 13.4421 22.4172Z" fill="#1D4282"/>
<path d="M49.0234 14.3909H34.0147C33.4754 14.3909 33.0381 14.8282 33.0381 15.3675V34.6251C33.0381 35.1644 33.4754 35.6017 34.0147 35.6017H49.0234C49.5628 35.6017 50 35.1644 50 34.6251V15.3675C50 14.8282 49.5628 14.3909 49.0234 14.3909ZM48.0469 33.6486H34.9913V16.344H48.0469V33.6486Z" fill="#A0CEE8"/>
<path d="M45.7732 17.9526H37.265C36.7256 17.9526 36.2884 18.3899 36.2884 18.9291C36.2884 19.4684 36.7256 19.9057 37.265 19.9057H45.7732C46.3125 19.9057 46.7497 19.4684 46.7497 18.9291C46.7497 18.3899 46.3125 17.9526 45.7732 17.9526Z" fill="#A0CEE8"/>
<path d="M45.7732 21.8719H37.265C36.7256 21.8719 36.2884 22.3092 36.2884 22.8484C36.2884 23.3877 36.7256 23.825 37.265 23.825H45.7732C46.3125 23.825 46.7497 23.3877 46.7497 22.8484C46.7497 22.3092 46.3125 21.8719 45.7732 21.8719Z" fill="#A0CEE8"/>
<path d="M45.7732 25.7912H37.265C36.7256 25.7912 36.2884 26.2285 36.2884 26.7678C36.2884 27.307 36.7256 27.7443 37.265 27.7443H45.7732C46.3125 27.7443 46.7497 27.307 46.7497 26.7678C46.7497 26.2285 46.3125 25.7912 45.7732 25.7912Z" fill="#A0CEE8"/>
<path d="M38.2226 30.496C38.2099 30.4335 38.1914 30.3719 38.1669 30.3134C38.1425 30.2547 38.1123 30.1981 38.0771 30.1445C38.041 30.0918 38.0009 30.041 37.955 29.9961C37.7285 29.7695 37.3916 29.6649 37.0742 29.7295C37.0117 29.7421 36.9501 29.7607 36.8916 29.7851C36.833 29.8095 36.7763 29.8398 36.7226 29.875C36.6699 29.9101 36.6191 29.9511 36.5742 29.9961C36.5292 30.041 36.4882 30.0917 36.4531 30.1445C36.4179 30.1982 36.3876 30.2548 36.3632 30.3134C36.3388 30.372 36.3203 30.4335 36.3076 30.496C36.2949 30.5594 36.288 30.623 36.288 30.6864C36.288 30.7508 36.2949 30.8144 36.3076 30.8778C36.3203 30.9404 36.3388 31.0019 36.3632 31.0605C36.3876 31.1192 36.4179 31.1758 36.4531 31.2294C36.4882 31.2822 36.5292 31.333 36.5742 31.3779C36.6191 31.4228 36.6699 31.4638 36.7226 31.499C36.7763 31.5341 36.833 31.5644 36.8916 31.5888C36.9501 31.6132 37.0117 31.6318 37.0742 31.6445C37.1376 31.6572 37.2011 31.664 37.2656 31.664C37.5224 31.664 37.7734 31.5595 37.955 31.3778C38 31.3329 38.041 31.2822 38.0771 31.2293C38.1123 31.1756 38.1425 31.119 38.1669 31.0604C38.1914 31.0018 38.2099 30.9404 38.2226 30.8778C38.2353 30.8144 38.2412 30.7508 38.2412 30.6864C38.2412 30.623 38.2353 30.5594 38.2226 30.496Z" fill="#A0CEE8"/>
<path d="M45.7732 29.7104H40.9671C40.4278 29.7104 39.9906 30.1478 39.9906 30.687C39.9906 31.2263 40.4278 31.6636 40.9671 31.6636H45.7732C46.3125 31.6636 46.7497 31.2263 46.7497 30.687C46.7497 30.1478 46.3125 29.7104 45.7732 29.7104Z" fill="#A0CEE8"/>
<path d="M16.1006 36.9873H1.09188C0.552531 36.9873 0.115326 37.4246 0.115326 37.9639V48.0226C0.115326 48.5619 0.552531 48.9992 1.09188 48.9992H16.1006C16.64 48.9992 17.0772 48.5619 17.0772 48.0226V37.9639C17.0772 37.4246 16.64 36.9873 16.1006 36.9873ZM15.1241 47.0461H2.06844V38.9404H15.1241V47.0461Z" fill="#A0CEE8"/>
<path d="M49.0234 36.9873H19.5046C18.9653 36.9873 18.528 37.4246 18.528 37.9639V48.0226C18.528 48.5619 18.9653 48.9992 19.5046 48.9992H49.0234C49.5628 48.9992 50 48.5619 50 48.0226V37.9639C50 37.4246 49.5628 36.9873 49.0234 36.9873ZM48.0469 47.0461H20.4812V38.9404H48.0469V47.0461Z" fill="#1D4282"/>
<path d="M24.9297 42.8027C24.917 42.7403 24.8984 42.6787 24.874 42.6201C24.8496 42.5605 24.8193 42.504 24.7842 42.4513C24.749 42.3975 24.708 42.3477 24.6631 42.3027C24.6182 42.2578 24.5684 42.2168 24.5146 42.1816C24.4619 42.1466 24.4053 42.1162 24.3457 42.0918C24.2871 42.0674 24.2256 42.0479 24.1631 42.0352C24.0371 42.0107 23.9072 42.0107 23.7812 42.0352C23.7197 42.0479 23.6582 42.0674 23.5986 42.0918C23.54 42.1162 23.4834 42.1466 23.4307 42.1816C23.377 42.2168 23.3271 42.2578 23.2822 42.3027C23.2373 42.3477 23.1963 42.3975 23.1602 42.4513C23.125 42.504 23.0947 42.5605 23.0703 42.6201C23.0459 42.6788 23.0273 42.7402 23.0146 42.8027C23.002 42.8652 22.9961 42.9297 22.9961 42.9932C22.9961 43.0565 23.002 43.1211 23.0146 43.1836C23.0273 43.246 23.0459 43.3075 23.0703 43.3671C23.0947 43.4257 23.125 43.4823 23.1602 43.5351C23.1963 43.5888 23.2373 43.6386 23.2822 43.6835C23.4639 43.8651 23.7158 43.9697 23.9727 43.9697C24.0361 43.9697 24.1006 43.9638 24.1631 43.9512C24.2256 43.9385 24.2871 43.9189 24.3457 43.8945C24.4053 43.8701 24.4619 43.8408 24.5146 43.8047C24.5684 43.7696 24.6182 43.7286 24.6631 43.6836C24.708 43.6387 24.749 43.5889 24.7842 43.5351C24.8193 43.4824 24.8496 43.4258 24.874 43.3672C24.8984 43.3076 24.917 43.2461 24.9297 43.1836C24.9424 43.121 24.9492 43.0565 24.9492 42.9932C24.9492 42.9297 24.9424 42.8651 24.9297 42.8027Z" fill="#1D4282"/>
<path d="M44.074 42.0167H27.6746C27.1352 42.0167 26.698 42.454 26.698 42.9932C26.698 43.5325 27.1352 43.9698 27.6746 43.9698H44.074C44.6133 43.9698 45.0505 43.5325 45.0505 42.9932C45.0505 42.454 44.6133 42.0167 44.074 42.0167Z" fill="#1D4282"/>
</svg>
